 <svg
    width="19"
    height="18"
    viewBox="0 0 19 18"
    fill="none"
    xmlns="http://www.w3.org/2000/svg"
  >
    <path
      d="M7.70106 0.234227C7.79931 0.215072 7.89849 0.196173 7.99685 0.177433L8.04587 0.168092L8.11036 0.155715C8.2265 0.133408 8.34275 0.111078 8.45974 0.0905191C8.529 0.0784189 8.59869 0.0699538 8.66842 0.0614837L8.69134 0.0586944C8.70941 0.0564481 8.72747 0.054075 8.74554 0.0517011C8.80747 0.0435647 8.86946 0.0354192 8.93177 0.0323396C8.9848 0.0297913 9.03781 0.0271176 9.09081 0.0244444C9.31705 0.0130331 9.54314 0.0016292 9.76991 1.76796e-05C9.83729 -0.000520032 9.90453 0.0112981 9.97185 0.0231329C10.0291 0.0331871 10.0863 0.0432532 10.1438 0.0457657C10.2262 0.0495218 10.309 0.0429608 10.3921 0.0363876C10.4299 0.0333885 10.4678 0.0303869 10.5057 0.0283615L10.5244 0.0273332C10.5562 0.0255305 10.5883 0.0237138 10.62 0.025378C10.6975 0.0296876 10.7751 0.0348811 10.8526 0.0400747C10.8914 0.0426715 10.9302 0.0452684 10.969 0.0477547L10.9731 0.0741095C10.9637 0.0777654 10.9543 0.0822146 10.9449 0.0866708C10.9236 0.0967615 10.9023 0.106888 10.8807 0.107923L10.8325 0.110598C10.6506 0.120727 10.4684 0.130878 10.2861 0.131792C10.1298 0.132786 9.9714 0.129305 9.81717 0.107923C9.61205 0.0800766 9.40744 0.073115 9.20181 0.0870383C8.98993 0.101459 8.77858 0.122344 8.56775 0.144721C8.45438 0.156381 8.34169 0.172267 8.22886 0.188174C8.20214 0.19194 8.17542 0.195707 8.14868 0.199419C8.10003 0.206075 8.05138 0.213366 8.00272 0.220657C7.94596 0.229164 7.8892 0.23767 7.83244 0.245167C7.80405 0.248814 7.7752 0.249808 7.74635 0.250803C7.73193 0.2513 7.7175 0.251797 7.70313 0.252626L7.70106 0.234227Z"
      fill="white"
    />
    <path
      fill-rule="evenodd"
      clip-rule="evenodd"
      d="M17.4552 12.0019C17.4085 12.0091 17.3621 12.0162 17.3157 12.0233C17.2099 12.0395 17.1044 12.0557 16.9995 12.073C16.9242 12.0854 16.8492 12.0985 16.7741 12.1117C16.699 12.1249 16.6234 12.1381 16.5482 12.1505C16.476 12.1625 16.4038 12.1729 16.3311 12.1809C16.252 12.1901 16.1726 12.1987 16.0932 12.2074C15.9883 12.2188 15.8832 12.2303 15.7786 12.243C15.6701 12.2563 15.5617 12.2709 15.4533 12.2856C15.3714 12.2966 15.2893 12.3076 15.2074 12.3181C15.1082 12.3305 15.0085 12.3405 14.9088 12.3494C14.8172 12.3572 14.7254 12.3641 14.6335 12.3709C14.5791 12.3749 14.5244 12.379 14.47 12.3833L14.4525 12.3846C14.2148 12.4036 13.9771 12.4225 13.7388 12.4414C13.699 12.4447 13.6591 12.4483 13.6192 12.4518C13.5546 12.4577 13.49 12.4635 13.4252 12.4678C13.1006 12.4882 12.7756 12.5076 12.451 12.526C12.275 12.5364 12.0994 12.5459 11.9234 12.5538C11.7459 12.5617 11.5687 12.5687 11.3914 12.5758L11.2182 12.5827C11.1454 12.5855 11.0727 12.5887 10.9999 12.592C10.8302 12.5995 10.6604 12.6071 10.4907 12.6095C9.71694 12.6204 8.94319 12.6294 8.16945 12.6359C7.8693 12.6383 7.56915 12.6349 7.26952 12.6289C6.95847 12.6229 6.64689 12.612 6.33584 12.6011C6.12293 12.5936 5.91002 12.5836 5.69763 12.5727C5.62233 12.5687 5.54704 12.5603 5.47278 12.5508C5.45564 12.5488 5.43695 12.5359 5.42552 12.523C5.2822 12.3589 5.11966 12.2197 4.91921 12.1192C4.70267 12.0103 4.47107 11.973 4.24102 12.0232C4.01045 12.0735 3.84169 12.2236 3.79807 12.4578C3.77106 12.6011 3.756 12.7527 3.77626 12.8954C3.79858 13.056 3.87544 13.2057 3.96476 13.3484C4.1382 13.6249 4.37967 13.8243 4.6819 13.9591C4.86781 14.0421 5.06721 14.0491 5.26247 14.0163C5.3819 13.9959 5.49095 13.9332 5.57196 13.8367C5.61039 13.7915 5.65453 13.7522 5.72515 13.791C5.73717 13.7977 5.75368 13.7966 5.77043 13.7955C5.77974 13.7949 5.78913 13.7943 5.79785 13.795C6.08606 13.8159 6.37375 13.8367 6.66143 13.8581C6.73693 13.8637 6.81242 13.8696 6.88791 13.8754C7.05389 13.8882 7.21987 13.9011 7.38585 13.9113C7.75714 13.9342 8.12895 13.9551 8.50076 13.9725L8.53163 13.9739C8.80283 13.9864 9.0745 13.9989 9.34616 13.9998C9.98333 14.0013 10.6205 13.9974 11.2577 13.9909C11.4396 13.9891 11.6214 13.981 11.8032 13.9729C11.876 13.9697 11.9492 13.9664 12.0221 13.9636C12.2324 13.9551 12.4427 13.9461 12.653 13.9352C12.7802 13.9287 12.9069 13.9203 13.0336 13.9079C13.0575 13.9054 13.0825 13.8835 13.1012 13.8651L13.1056 13.8607C13.235 13.7344 13.3638 13.6086 13.5332 13.5289C13.6791 13.4608 13.8297 13.4091 13.9923 13.4007L14.0043 13.4C14.1137 13.3942 14.2257 13.3883 14.3334 13.4036C14.551 13.4345 14.7868 13.5976 14.8724 13.8213C14.9638 14.0605 14.8984 14.2733 14.7634 14.4683C14.551 14.7751 14.2607 15.0028 13.9076 15.147C13.7399 15.2157 13.5581 15.2485 13.3738 15.2345C13.2305 15.2241 13.0851 15.1893 12.9874 15.0844C12.9093 15.0002 12.8261 15.0094 12.7355 15.0195L12.72 15.0212C12.7026 15.0231 12.6853 15.026 12.6679 15.0289C12.6443 15.0328 12.6206 15.0367 12.5969 15.0381C12.4902 15.0449 12.3832 15.051 12.2763 15.0572L12.275 15.0573C12.1941 15.0619 12.1132 15.0665 12.0325 15.0714C11.9515 15.0763 11.8704 15.0818 11.7893 15.0873C11.7289 15.0914 11.6685 15.0955 11.6082 15.0993C11.4493 15.1092 11.2904 15.1187 11.132 15.1276C10.9461 15.1376 10.7607 15.147 10.5748 15.156C10.4938 15.1598 10.4127 15.1633 10.3315 15.1667C10.2021 15.1723 10.0726 15.1778 9.94335 15.1848C9.88311 15.1883 9.83741 15.1699 9.79328 15.1326C9.63801 15.0018 9.4547 14.9243 9.25737 14.8656C9.0294 14.798 8.79675 14.7955 8.56723 14.8203C8.30603 14.8487 8.07027 14.9461 7.89371 15.15C7.73896 15.329 7.74467 15.6284 7.86619 15.8104C8.00328 16.0157 8.2032 16.1361 8.42858 16.2271C8.67057 16.325 8.92502 16.3608 9.18519 16.338C9.41835 16.3171 9.6406 16.2559 9.8317 16.1152C9.85403 16.0988 9.88727 16.0903 9.91635 16.0888C10.0145 16.0835 10.1128 16.0792 10.2111 16.0748C10.3503 16.0687 10.4898 16.0626 10.6288 16.0535C10.834 16.0402 11.0383 16.0214 11.243 16.0025L11.294 15.9978C11.481 15.9804 11.6679 15.962 11.8543 15.9402C12.0818 15.9138 12.3092 15.886 12.5362 15.8551C12.7236 15.8298 12.9111 15.8024 13.0975 15.7711C13.2128 15.7515 13.3277 15.7294 13.4427 15.7073C13.5177 15.6929 13.593 15.6784 13.6682 15.6647C13.7356 15.6524 13.8031 15.6409 13.8706 15.6294C13.9749 15.6117 14.0792 15.594 14.1828 15.5732C14.2755 15.5546 14.3671 15.5321 14.4587 15.5096C14.5138 15.4961 14.5694 15.4824 14.6247 15.4698C14.6407 15.4661 14.6566 15.4624 14.6725 15.4587C14.6859 15.4555 14.6993 15.4524 14.7126 15.4493L14.7137 15.449C14.8228 15.4234 14.932 15.3977 15.0423 15.3797C15.2162 15.3509 15.3429 15.2589 15.465 15.1426C15.6415 14.975 15.8591 14.8636 16.0943 14.79C16.1717 14.7656 16.2626 14.7547 16.3405 14.7984C16.4168 14.8417 16.4412 14.973 16.3945 15.0665C16.2792 15.2962 16.0969 15.4742 15.896 15.6338C15.7646 15.7378 15.628 15.8372 15.4852 15.9262C15.3569 16.0058 15.2183 16.0714 15.0568 16.0585C15.0418 16.0574 15.0273 16.0512 15.0126 16.045C15.0019 16.0404 14.9911 16.0359 14.9799 16.0331C14.9587 16.0277 14.9342 16.0217 14.9135 16.0262C14.8394 16.0423 14.7656 16.0593 14.6918 16.0763L14.6905 16.0766C14.6007 16.0973 14.5108 16.118 14.4207 16.1371C14.3595 16.15 14.2978 16.1608 14.236 16.1717C14.1834 16.1809 14.1308 16.1902 14.0785 16.2007C14.0137 16.2135 13.9492 16.2274 13.8846 16.2412C13.8289 16.2531 13.7733 16.265 13.7176 16.2763C13.6584 16.2882 13.5981 16.2987 13.5384 16.3076C13.4813 16.3158 13.4241 16.3237 13.367 16.3315C13.275 16.3441 13.1829 16.3567 13.0913 16.3708C13.0113 16.3828 12.9315 16.3959 12.8518 16.409C12.7738 16.4218 12.6958 16.4346 12.6177 16.4464C12.5356 16.4588 12.4536 16.4688 12.371 16.4767C12.2448 16.4891 12.1181 16.4996 11.9914 16.51L11.9892 16.5102C11.7465 16.53 11.5035 16.5499 11.2608 16.5692C11.2362 16.5712 11.2117 16.5732 11.1871 16.5752C11.0877 16.5834 10.9878 16.5917 10.8879 16.596C10.6132 16.6075 10.339 16.6179 10.0643 16.6244L10.0111 16.6257C9.656 16.6342 9.30089 16.6428 8.94579 16.6423C8.7478 16.6423 8.54951 16.633 8.35137 16.6238C8.28983 16.6209 8.22783 16.618 8.16634 16.6154C8.01211 16.609 7.8584 16.599 7.70469 16.5876C7.47828 16.5712 7.25135 16.5533 7.02546 16.5329C6.87139 16.5189 6.71813 16.5018 6.56461 16.4847L6.50201 16.4777C6.41633 16.4683 6.3483 16.4245 6.27872 16.3777C6.08554 16.2485 5.87782 16.144 5.64934 16.0834C5.62939 16.0781 5.60943 16.0727 5.58944 16.0672C5.49805 16.0424 5.40606 16.0174 5.31232 16.0068C5.23806 15.9983 5.15653 16.0152 5.08331 16.0366C5.00646 16.059 4.97841 16.1739 5.01944 16.249C5.09058 16.3787 5.19859 16.4772 5.31751 16.5647C5.49355 16.694 5.68569 16.7969 5.89132 16.8795C6.08866 16.959 6.28858 17.0217 6.50513 17.0167C6.52992 17.0161 6.55493 17.01 6.57982 17.004C6.60965 16.9968 6.6393 16.9897 6.66818 16.9919C6.74849 16.9981 6.82854 17.0107 6.90852 17.0234C6.94386 17.029 6.97923 17.0346 7.01455 17.0396C7.02897 17.0417 7.04342 17.0437 7.05787 17.0458C7.12045 17.0549 7.1833 17.064 7.24615 17.0704C7.37026 17.0834 7.49437 17.0938 7.61848 17.1038C7.89423 17.1256 8.16945 17.147 8.4452 17.1664L8.47577 17.1685C8.62903 17.1793 8.78212 17.19 8.93592 17.1938L9.04075 17.1962C9.43774 17.2054 9.8345 17.2146 10.2316 17.2141C10.5431 17.2141 10.8547 17.1997 11.1658 17.1838C11.3853 17.1729 11.6045 17.1531 11.8232 17.1334L11.8824 17.1281C12.0621 17.1122 12.2417 17.0933 12.4204 17.0714C12.5031 17.0614 12.5856 17.0495 12.6681 17.0377C12.7974 17.0192 12.9267 17.0007 13.057 16.9889C13.2335 16.9728 13.3779 16.8928 13.5238 16.8119C13.5406 16.8026 13.5574 16.7932 13.5742 16.784C13.7601 16.6821 13.9611 16.6144 14.1688 16.5637L14.1828 16.5603C14.2535 16.543 14.3247 16.5255 14.3968 16.5195C14.4456 16.5155 14.4986 16.5284 14.5458 16.5443C14.5858 16.5573 14.5936 16.6353 14.55 16.6731C14.4648 16.7467 14.3765 16.8213 14.2773 16.8755C14.0629 16.9929 13.8469 17.1102 13.6204 17.2027C13.4434 17.2753 13.2575 17.3399 13.0544 17.3295C12.9913 17.3264 12.9273 17.339 12.8635 17.3515C12.8454 17.3551 12.8273 17.3586 12.8093 17.3618C12.7741 17.3681 12.7393 17.3761 12.7044 17.3842C12.6616 17.3941 12.6185 17.404 12.5751 17.4106C12.4188 17.4339 12.2615 17.4533 12.1041 17.4727C12.054 17.4789 12.0039 17.4851 11.9538 17.4913C11.7645 17.5148 11.5751 17.5384 11.3854 17.5573C11.1543 17.5806 10.9227 17.5985 10.6911 17.6129C10.4735 17.6264 10.256 17.6353 10.0379 17.6413L9.99312 17.6425C9.68707 17.6511 9.38059 17.6597 9.07458 17.6592C8.83726 17.6587 8.5989 17.6492 8.36263 17.6289C8.3006 17.6234 8.24054 17.6005 8.18017 17.5775C8.14755 17.5651 8.11485 17.5526 8.08169 17.5428C8.06417 17.5376 8.04664 17.5323 8.02911 17.5271L8.02757 17.5266C7.92717 17.4964 7.82654 17.4661 7.72442 17.4434C7.58317 17.4116 7.44037 17.3797 7.29653 17.3678C7.19347 17.3592 7.08849 17.3688 6.98424 17.3783C6.96784 17.3798 6.95093 17.3813 6.93458 17.3827C6.87486 17.3877 6.87746 17.425 6.92212 17.4493C6.98391 17.4831 7.0477 17.5134 7.11141 17.5438C7.13971 17.5573 7.16821 17.5708 7.1963 17.5846C7.20074 17.5867 7.20557 17.5885 7.21031 17.5902C7.21328 17.5913 7.21637 17.5924 7.21915 17.5936L7.21292 17.6144C7.19599 17.6108 7.17892 17.6075 7.16184 17.6042C7.12347 17.5968 7.08472 17.5893 7.04779 17.5776C6.91692 17.5354 6.78658 17.4911 6.6578 17.4434C6.60853 17.4252 6.55907 17.4074 6.50962 17.3897C6.35329 17.3334 6.19671 17.2771 6.04607 17.2092C5.78072 17.0898 5.51744 16.964 5.26454 16.8228C4.98798 16.669 4.72086 16.4989 4.45395 16.329L4.43679 16.3181C4.10653 16.1077 3.8017 15.8661 3.51557 15.6035C3.29487 15.4011 3.08041 15.1928 2.87321 14.9785C2.55021 14.6443 2.26512 14.2803 2.00652 13.8989C1.7666 13.5459 1.5485 13.1794 1.3709 12.7925C1.34635 12.739 1.32142 12.6856 1.29648 12.6322C1.22387 12.4766 1.15114 12.3207 1.08737 12.162C1.02953 12.0185 0.982353 11.8709 0.935162 11.7232C0.923466 11.6866 0.91177 11.65 0.899908 11.6135C0.85006 11.4599 0.8002 11.3062 0.759699 11.15C0.72402 11.0125 0.697498 10.8728 0.670943 10.733L0.663631 10.6946C0.624684 10.4912 0.587814 10.2873 0.55406 10.0829C0.539 9.99043 0.526019 9.89695 0.523423 9.80396C0.521447 9.72365 0.51934 9.64321 0.51723 9.56267C0.508252 9.22002 0.499213 8.87508 0.500055 8.53097C0.500515 8.35106 0.522619 8.17114 0.544638 7.99192C0.547448 7.96904 0.550259 7.94617 0.553021 7.92332C0.566313 7.81513 0.586699 7.7077 0.607077 7.6003C0.615351 7.55669 0.623638 7.51297 0.631435 7.46932C0.637637 7.43412 0.643586 7.39887 0.649535 7.36363C0.664497 7.27499 0.679484 7.1862 0.698423 7.09837C0.713542 7.0281 0.733114 6.95858 0.752674 6.8891C0.760658 6.86074 0.76864 6.83238 0.776317 6.80399L0.796978 6.72819C0.821662 6.63749 0.846403 6.5466 0.872385 6.4564L0.88396 6.41624C0.91063 6.32354 0.93741 6.23045 0.970532 6.13965C1.02246 5.99495 1.0775 5.85124 1.13878 5.71002C1.15531 5.67214 1.17173 5.63421 1.18814 5.59628C1.27022 5.40663 1.3523 5.21698 1.4488 5.03424C1.59056 4.76572 1.74479 4.50267 1.90733 4.24509C2.03456 4.0432 2.17217 3.84579 2.32224 3.65882C2.52944 3.40074 2.73975 3.14266 2.97239 2.90596C3.24554 2.6275 3.53271 2.35947 3.8339 2.10935C4.20363 1.80254 4.59933 1.52507 5.02723 1.29335C5.08736 1.2608 5.14732 1.22791 5.20727 1.19503C5.40102 1.08877 5.59475 0.982519 5.79422 0.887582C5.97532 0.801599 6.1625 0.726997 6.34972 0.652383C6.4191 0.62473 6.48849 0.597075 6.55757 0.568838C6.57046 0.563642 6.58557 0.563536 6.60563 0.563396C6.61629 0.563321 6.62835 0.563237 6.64222 0.562374C6.61772 0.583777 6.58959 0.598164 6.56256 0.611991C6.51108 0.638319 6.46357 0.662616 6.45268 0.729454C6.59029 0.740891 6.72011 0.747355 6.85045 0.714038C6.89967 0.70134 6.9499 0.691759 7.00013 0.682176C7.0522 0.672244 7.10428 0.662309 7.15528 0.648897L7.18714 0.640583C7.31743 0.606613 7.44851 0.572435 7.57383 0.525079L7.57664 0.524011C7.71687 0.470691 7.85114 0.419637 8.00795 0.416179C8.15626 0.412946 8.30426 0.401242 8.45229 0.389536C8.57741 0.379641 8.70255 0.369745 8.82791 0.364962C9.22517 0.349546 9.62295 0.342585 10.0207 0.336618C10.2274 0.333634 10.4341 0.338607 10.6402 0.345568C10.8116 0.351038 10.9824 0.361481 11.1533 0.373912C11.3506 0.388333 11.548 0.404245 11.7442 0.426125C11.8771 0.440987 12.0094 0.459695 12.1418 0.478405C12.1998 0.48661 12.2579 0.494821 12.316 0.502703C12.3378 0.505686 12.3612 0.50867 12.3819 0.504692C12.6281 0.460933 12.8566 0.532538 13.0783 0.616078C13.2829 0.693154 13.4818 0.784649 13.6791 0.877637C13.7638 0.917418 13.8427 0.972117 13.9138 1.03179C13.9476 1.05963 13.9772 1.11781 13.9715 1.1571C13.9632 1.21428 13.9019 1.23865 13.8396 1.24312C13.6303 1.25804 13.4304 1.22124 13.2294 1.16505C13.0285 1.10837 12.8342 1.04024 12.6592 0.931341C12.5834 0.884102 12.5055 0.87714 12.4209 0.87167C12.2443 0.860658 12.068 0.846904 11.8917 0.833155C11.7974 0.825796 11.703 0.818435 11.6087 0.811502C11.4701 0.801059 11.3309 0.790617 11.1917 0.784152C10.9347 0.772715 10.6771 0.763765 10.4195 0.755311C10.3678 0.753497 10.316 0.751418 10.2642 0.749339C10.1031 0.74287 9.94193 0.736402 9.78081 0.737907C9.50403 0.740393 9.22725 0.750836 8.95046 0.766251C8.72094 0.778682 8.49193 0.799567 8.26292 0.822938C8.03288 0.846807 7.80335 0.876643 7.57383 0.906976C7.38117 0.932833 7.18903 0.960182 6.99742 0.992504C6.89797 1.00914 6.7988 1.02802 6.69962 1.0469C6.60614 1.0647 6.51265 1.0825 6.41892 1.09842C6.21796 1.13273 6.01751 1.16157 5.81032 1.1571C5.64345 1.15354 5.49531 1.22726 5.3495 1.29983C5.33242 1.30833 5.31534 1.31683 5.2983 1.32517C5.05267 1.44501 4.82055 1.58424 4.63257 1.77917C4.56662 1.84779 4.51469 1.93133 4.47107 2.01537C4.42849 2.09692 4.48561 2.16753 4.58583 2.17549C4.7224 2.18643 4.84911 2.14565 4.9753 2.10438C5.23754 2.01786 5.46655 1.87614 5.69192 1.72447C5.75162 1.68409 5.83113 1.66846 5.90832 1.65329C5.92713 1.64959 5.94581 1.64592 5.96403 1.64193C6.10787 1.6101 6.25275 1.58424 6.39815 1.55888C6.46828 1.54691 6.53855 1.53644 6.60882 1.52596C6.67278 1.51643 6.73677 1.50689 6.8006 1.49623C6.88153 1.48287 6.96231 1.4685 7.0431 1.45413C7.11264 1.44177 7.18221 1.42939 7.25187 1.41766C7.31886 1.40623 7.38636 1.39628 7.45387 1.38882L7.52261 1.38142C7.70336 1.36195 7.88448 1.34244 8.06559 1.32567C8.29408 1.30478 8.52257 1.28539 8.75158 1.26848C8.90996 1.25655 9.06886 1.24611 9.22777 1.24113C9.46448 1.23387 9.70119 1.22802 9.93777 1.22216C10.0738 1.2188 10.2099 1.21543 10.3458 1.2118C10.3889 1.21066 10.4321 1.20966 10.4752 1.20865C10.6404 1.20481 10.8058 1.20096 10.9705 1.18992C11.0157 1.1867 11.0598 1.16649 11.1039 1.14633C11.121 1.13847 11.1382 1.13062 11.1554 1.12378C11.3371 1.05118 11.5235 1.02731 11.7178 1.0666C11.7624 1.07578 11.8075 1.08313 11.8525 1.09046C11.9195 1.10138 11.9864 1.11229 12.0517 1.12925C12.2495 1.18047 12.4313 1.2665 12.6006 1.37888C12.7314 1.4659 12.8581 1.55739 12.9215 1.7021C12.9999 1.88111 12.9412 2.01736 12.8026 2.11781C12.6182 2.25107 12.4063 2.29384 12.1784 2.29185C11.8377 2.28886 11.509 2.23914 11.2359 2.03178C11.118 1.94227 11.0017 1.91691 10.8594 1.91791C10.5815 1.9198 10.3036 1.91974 10.0258 1.91967C9.64698 1.91958 9.26817 1.91949 8.88919 1.92437C8.76508 1.92586 8.66953 1.88708 8.56982 1.83287C8.42858 1.7558 8.27383 1.72547 8.11233 1.72099C7.69794 1.70955 7.33132 1.8284 7.00624 2.07703C6.83592 2.20731 6.71492 2.36693 6.66715 2.56733C6.62924 2.72546 6.68013 2.87215 6.79541 2.99547C6.91381 3.12277 7.06388 3.19089 7.23629 3.2262C7.42843 3.26499 7.61745 3.25753 7.8101 3.22819C8.12583 3.17995 8.39431 3.0442 8.6337 2.84679C8.64772 2.83486 8.67109 2.8269 8.68978 2.8269L8.80461 2.82728C9.03428 2.82802 9.26396 2.82875 9.49364 2.83386C9.65657 2.83744 9.81917 2.84612 9.9817 2.8548C10.0222 2.85696 10.0628 2.85913 10.1033 2.86121C10.2622 2.86917 10.4211 2.87911 10.58 2.88906C10.702 2.89652 10.8241 2.90397 10.9456 2.91392C11.1793 2.93232 11.4135 2.95121 11.6471 2.9716C11.8367 2.98851 12.0262 3.0074 12.2158 3.0268C12.3954 3.0452 12.5746 3.06409 12.7537 3.08448L12.7946 3.08913C12.9335 3.10493 13.0722 3.1207 13.2107 3.14017C13.3415 3.15837 13.4721 3.1781 13.6027 3.19784C13.7076 3.21369 13.8125 3.22954 13.9175 3.2446C13.9626 3.25113 14.008 3.25603 14.0535 3.26092C14.1049 3.26645 14.1563 3.27199 14.2072 3.2799C14.3005 3.29452 14.3936 3.31097 14.4867 3.32743C14.5392 3.33672 14.5918 3.34602 14.6445 3.35499C14.6636 3.35826 14.6828 3.36145 14.7019 3.36463C14.7498 3.3726 14.7976 3.38056 14.8454 3.3898C15.0355 3.42559 15.2256 3.46141 15.4151 3.49969C15.4752 3.51169 15.535 3.52499 15.5949 3.53829C15.6688 3.55473 15.7429 3.5712 15.8176 3.58522C15.8388 3.5892 15.8721 3.57279 15.8877 3.55588C15.9983 3.43654 16.072 3.42461 16.233 3.46787C16.5134 3.54395 16.7029 3.73191 16.8764 3.93629C16.9891 4.06906 17.0862 4.21475 17.1791 4.36145C17.2788 4.51908 17.3079 4.69511 17.2856 4.8776C17.2669 5.02927 17.135 5.16253 16.9771 5.16502C16.9012 5.16635 16.8228 5.13804 16.7482 5.11109C16.7391 5.10781 16.7301 5.10455 16.7211 5.10137C16.4942 5.02032 16.3332 4.85871 16.2013 4.67422C16.1533 4.60707 16.091 4.59607 16.0281 4.58496C16.023 4.58406 16.0179 4.58316 16.0128 4.58223C15.8316 4.54891 15.6488 4.52355 15.466 4.49869C15.3999 4.48951 15.3333 4.48315 15.2668 4.47679C15.2288 4.47316 15.1908 4.46953 15.1529 4.46537C14.9157 4.43903 14.6785 4.4117 14.4413 4.38437C14.4365 4.3837 14.4312 4.38344 14.4264 4.38321L14.4232 4.38307L14.4191 4.38283C14.2387 4.3719 14.0574 4.36093 13.877 4.34951C13.7519 4.34156 13.6269 4.33328 13.5018 4.32501C13.3143 4.3126 13.1266 4.30018 12.9391 4.28885C12.7434 4.27691 12.5476 4.26846 12.3518 4.2605C12.0776 4.24956 11.8034 4.24061 11.5293 4.23216C11.4576 4.22989 11.386 4.22737 11.3143 4.22485C11.1191 4.21798 10.9235 4.2111 10.728 4.20928C10.1942 4.20431 9.66034 4.20381 9.12651 4.20431C8.71575 4.20431 8.30499 4.20729 7.89423 4.21426C7.66946 4.21803 7.44468 4.22744 7.21991 4.23685C7.17777 4.23861 7.13563 4.24038 7.09348 4.2421C6.905 4.24956 6.71652 4.26 6.52805 4.27044C6.37641 4.2789 6.22523 4.28785 6.0736 4.29879C5.82745 4.31669 5.58131 4.33459 5.33517 4.35598C5.14562 4.37239 4.95608 4.39078 4.76706 4.41217C4.58632 4.43311 4.40623 4.45656 4.22602 4.48004C4.17949 4.4861 4.13283 4.49217 4.08627 4.49819C4.07748 4.49924 4.06913 4.50266 4.06075 4.50609C4.05329 4.50914 4.0458 4.5122 4.03798 4.51361L4.03319 4.51454C3.97853 4.52516 3.92984 4.53462 3.88998 4.47084C3.83026 4.37587 3.73627 4.32813 3.61683 4.31769C3.42677 4.30128 3.26735 4.37089 3.12143 4.47283C2.84153 4.66875 2.65303 4.93479 2.53152 5.2416C2.46557 5.40868 2.41572 5.5852 2.44012 5.7667C2.46505 5.9492 2.51542 6.13269 2.72521 6.19733C2.81713 6.22568 2.93137 6.22866 3.02432 6.20429C3.3089 6.1297 3.50571 5.93776 3.67759 5.71748C3.70252 5.68565 3.75808 5.66377 3.8017 5.6583C3.98334 5.63767 4.16532 5.62132 4.34737 5.60497C4.38907 5.60122 4.43091 5.59746 4.47262 5.59366L4.55086 5.58646C4.73614 5.56941 4.92147 5.55235 5.1072 5.53796C5.333 5.51987 5.5588 5.50402 5.78494 5.48815L5.88977 5.48078C6.03361 5.47083 6.17745 5.46139 6.32182 5.45293C6.50305 5.44249 6.68376 5.43354 6.865 5.42459C7.06285 5.41464 7.26069 5.4047 7.45906 5.39674C7.6551 5.38886 7.85084 5.38182 8.04673 5.37478L8.23748 5.3679C8.32105 5.36497 8.40461 5.36161 8.48818 5.35825C8.67405 5.35078 8.86014 5.3433 9.04601 5.34055C9.82962 5.32961 10.6132 5.32066 11.3968 5.31469C11.7115 5.31221 12.0267 5.31569 12.3414 5.32166C12.6175 5.3267 12.8936 5.33684 13.1697 5.34697L13.2388 5.3495C13.4174 5.35597 13.596 5.36392 13.7742 5.37735C13.8515 5.38332 13.904 5.36492 13.9528 5.30276C14.0291 5.2048 14.12 5.12076 14.2472 5.078C14.3942 5.02827 14.5443 5.01882 14.6938 5.04369C15.0635 5.10485 15.3211 5.3311 15.5486 5.59614C15.6846 5.75477 15.7807 5.93528 15.8347 6.13269C15.9536 6.56879 15.7189 7.08842 15.264 7.26893C15.0968 7.33506 14.9316 7.32959 14.7577 7.30224C14.592 7.27589 14.4399 7.22368 14.3168 7.12025C14.2535 7.06716 14.1984 7.00529 14.1433 6.94341C14.1075 6.90328 14.0718 6.86312 14.0338 6.82537C14.0089 6.80051 13.9658 6.78211 13.9299 6.78012C13.7446 6.76868 13.5586 6.76023 13.3727 6.75625C13.2528 6.75342 13.1328 6.75042 13.0128 6.74742C12.5856 6.73673 12.1586 6.72604 11.7313 6.72294C10.4455 6.71299 9.16026 6.70603 7.8745 6.70454C7.53131 6.70417 7.18812 6.71344 6.84471 6.72271C6.7268 6.7259 6.60855 6.72909 6.49059 6.73189C6.42879 6.73338 6.39659 6.7115 6.35609 6.66426C6.23458 6.52155 6.08139 6.41563 5.89444 6.35894C5.77293 6.32214 5.65038 6.29579 5.52263 6.30573C5.32582 6.32065 5.14303 6.37983 4.97738 6.48127C4.76291 6.61205 4.60037 6.78957 4.48872 7.00787C4.42121 7.14014 4.36565 7.27639 4.35371 7.42606C4.35133 7.45467 4.34739 7.48334 4.34345 7.51201C4.33624 7.56456 4.32903 7.61711 4.33138 7.66922C4.34748 8.03819 4.4882 8.35196 4.80393 8.57722C4.92545 8.66374 5.0641 8.71546 5.21677 8.74132C5.57196 8.80049 5.86796 8.68662 6.13072 8.47031C6.17342 8.43522 6.21171 8.39488 6.25002 8.35453C6.27738 8.3257 6.30476 8.29685 6.33376 8.26991C6.35505 8.25002 6.38725 8.23212 6.41633 8.22914C6.46793 8.22408 6.51985 8.2245 6.57184 8.22492C6.58629 8.22504 6.60076 8.22516 6.61522 8.22516C6.99335 8.22318 7.37151 8.22118 7.74969 8.21917L7.75571 8.21913C8.89724 8.21307 10.0389 8.20701 11.1803 8.20179C11.5346 8.20008 11.8889 8.20277 12.2428 8.20545L12.4198 8.20676C12.4599 8.20676 12.5002 8.2127 12.5404 8.21863C12.556 8.22092 12.5716 8.22322 12.5871 8.22516C12.6556 8.23312 12.7023 8.21074 12.7439 8.15405C12.8311 8.03521 12.9298 7.92233 13.0674 7.8547C13.1593 7.80995 13.2564 7.76917 13.3566 7.74829C13.4698 7.72492 13.5888 7.71994 13.7051 7.71795C13.8936 7.71447 14.0598 7.78509 14.215 7.87956C14.4757 8.03869 14.6678 8.25549 14.794 8.52501C14.8865 8.72242 14.927 8.93376 14.8896 9.14609C14.8257 9.51008 14.6336 9.80894 14.3277 10.0347C14.1548 10.1625 13.9653 10.2545 13.7383 10.2679C13.4714 10.2843 13.219 10.2525 13.0035 10.0919C12.9281 10.0357 12.8641 9.96415 12.8005 9.89309C12.7876 9.87857 12.7746 9.86405 12.7615 9.84971C12.7184 9.80247 12.6795 9.77164 12.6063 9.77264C12.3231 9.77622 12.0397 9.77765 11.7564 9.77908C11.5674 9.78003 11.3785 9.78099 11.1896 9.78258C11.145 9.78258 11.1154 9.77214 11.0863 9.73783C10.9165 9.54091 10.7088 9.38974 10.4549 9.31018C10.2258 9.23858 9.99112 9.22266 9.74913 9.26642C9.53519 9.30571 9.34461 9.38626 9.17272 9.5066C8.95306 9.66075 8.79831 9.86711 8.7064 10.1098C8.62123 10.3345 8.61241 10.5678 8.6607 10.8054C8.72509 11.1242 8.90529 11.3673 9.16337 11.5653C9.3067 11.6747 9.46716 11.7547 9.64684 11.79L9.67062 11.7947C9.78354 11.8172 9.89892 11.8402 10.0129 11.8397C10.3084 11.8383 10.581 11.7527 10.8189 11.5842C10.8754 11.5441 10.9259 11.4964 10.9764 11.4488C11.0099 11.4173 11.0434 11.3857 11.0785 11.3564C11.105 11.3345 11.1424 11.3141 11.1761 11.3122C11.2483 11.3086 11.3207 11.308 11.3932 11.3075C11.4512 11.3071 11.5093 11.3067 11.5672 11.3047C11.7873 11.2972 12.0075 11.2868 12.2277 11.2764C12.3596 11.27 12.4916 11.2628 12.6235 11.2557C12.6675 11.2533 12.7118 11.2509 12.7558 11.2485L12.8786 11.2417C13.0062 11.2346 13.1338 11.2276 13.2616 11.2197C13.4107 11.2107 13.5597 11.2013 13.7082 11.1913C13.8473 11.1824 13.9866 11.1734 14.1252 11.163C14.3811 11.1446 14.6373 11.1262 14.8932 11.1063C15.1269 11.0884 15.3606 11.0695 15.5937 11.0496C15.803 11.0317 16.0123 11.0128 16.2216 10.9929C16.4085 10.975 16.5955 10.9561 16.7824 10.9362C16.9522 10.9183 17.1215 10.8999 17.2908 10.8785C17.3967 10.8651 17.5021 10.8487 17.6065 10.8258C17.632 10.8204 17.6564 10.7885 17.6709 10.7632C17.6769 10.7527 17.6828 10.7422 17.6887 10.7316C17.7478 10.6263 17.8072 10.5206 17.9082 10.4464C17.9669 10.4037 18.0365 10.3649 18.1071 10.35C18.2369 10.3221 18.3533 10.3957 18.4078 10.5205C18.482 10.6911 18.5158 10.8701 18.4929 11.0526C18.455 11.3594 18.3398 11.6423 18.1632 11.8999L18.1565 11.9097C18.0829 12.0175 18.0083 12.1267 17.8838 12.1928C17.7187 12.2798 17.5582 12.2659 17.4907 12.0655C17.4853 12.0494 17.4757 12.0344 17.4664 12.0198C17.4625 12.0138 17.4587 12.0078 17.4552 12.0019ZM13.1502 9.03139C13.1495 9.0169 13.1488 9.00181 13.1479 8.98597C13.15 8.74281 13.2585 8.55385 13.502 8.44197C13.7368 8.33456 14.0006 8.42456 14.1548 8.61203C14.2784 8.7622 14.3085 8.93873 14.2727 9.11725C14.2311 9.32411 14.1075 9.48074 13.891 9.55682C13.5737 9.66771 13.2606 9.46433 13.1816 9.19382C13.1788 9.18457 13.1747 9.17565 13.1706 9.16679C13.1648 9.15424 13.1591 9.1418 13.1572 9.12868C13.1532 9.09749 13.1518 9.06604 13.1502 9.03139ZM15.3374 6.21418L15.3455 6.24805C15.3289 6.43154 15.277 6.57326 15.1077 6.65282C14.9607 6.72194 14.8262 6.6941 14.6907 6.62299C14.5375 6.54243 14.4378 6.41812 14.3786 6.26745C14.3075 6.08694 14.3069 5.85124 14.5069 5.70306C14.6466 5.59913 14.819 5.59863 14.9914 5.69659C15.1607 5.79256 15.2697 5.93229 15.3144 6.11678C15.3223 6.1511 15.3305 6.18542 15.3374 6.21418ZM13.773 14.7644C13.7573 14.7648 13.7416 14.7652 13.7264 14.7666C13.5597 14.7756 13.433 14.7254 13.3764 14.5618C13.3395 14.4543 13.3816 14.3604 13.4356 14.2748C13.5509 14.0923 13.7144 13.974 13.9403 13.9307C14.0909 13.9019 14.2104 13.9287 14.3101 14.0371C14.3838 14.1167 14.3843 14.2147 14.3552 14.3057C14.2815 14.5374 14.0982 14.6687 13.8723 14.7512C13.842 14.7625 13.8074 14.7634 13.773 14.7644ZM11.496 1.41219C11.5827 1.35352 11.6814 1.34904 11.7816 1.34904C11.9862 1.35153 12.168 1.40821 12.3155 1.54894C12.37 1.60115 12.4297 1.65834 12.4069 1.7369C12.3783 1.83486 12.2963 1.87763 12.1914 1.89752C11.9733 1.93929 11.7754 1.89155 11.5962 1.77818C11.5267 1.73392 11.4737 1.66182 11.4254 1.59469C11.3896 1.54496 11.4342 1.45396 11.496 1.41219ZM16.9391 4.46368C16.9393 4.47215 16.9395 4.47986 16.9403 4.48626C16.947 4.61008 16.933 4.65135 16.8463 4.67422C16.8011 4.68616 16.7393 4.66826 16.6936 4.64687C16.4739 4.54344 16.3446 4.36741 16.2818 4.14514C16.2678 4.09491 16.2527 4.03673 16.2657 3.98949C16.2927 3.89203 16.4168 3.86468 16.5207 3.91988C16.7222 4.02679 16.8437 4.19636 16.9283 4.39427C16.938 4.41663 16.9386 4.44254 16.9391 4.46368ZM17.7628 11.5123C17.7634 11.5026 17.7639 11.4929 17.7639 11.4832C17.7727 11.2788 17.8303 11.0889 17.9742 10.9332C18.0147 10.8895 18.0687 10.8388 18.1414 10.8591C18.2004 10.876 18.2192 10.9285 18.2388 10.9835C18.2945 11.1383 18.242 11.2809 18.1905 11.42L18.1892 11.4235C18.1581 11.507 18.1024 11.5833 18.0484 11.6571L18.0396 11.6692C17.9981 11.7259 17.929 11.7547 17.8599 11.7284C17.795 11.7035 17.7774 11.6359 17.7649 11.5747C17.7606 11.5546 17.7617 11.5335 17.7628 11.5123ZM16.0465 15.1906C16.0528 15.2 16.0597 15.2103 16.0679 15.2201C16.0574 15.2378 16.0484 15.2553 16.0391 15.2724C16.0183 15.3105 15.9986 15.3465 15.9728 15.3778C15.8617 15.5125 15.7293 15.6259 15.5678 15.704C15.5294 15.7229 15.4863 15.7368 15.4437 15.7413C15.3985 15.7457 15.3544 15.7194 15.3668 15.6731C15.384 15.6105 15.4099 15.5458 15.4494 15.4941C15.5631 15.3459 15.7095 15.2316 15.8892 15.1624C15.9256 15.1485 15.9723 15.149 16.0118 15.1555C16.0241 15.1575 16.0342 15.1724 16.0465 15.1906ZM12.8578 0.813701C12.8078 0.7863 12.7575 0.758666 12.7688 0.680722C12.9282 0.651881 13.07 0.694645 13.206 0.749841C13.2928 0.784972 13.3739 0.83413 13.4544 0.883003C13.4674 0.890855 13.4803 0.8987 13.4932 0.906478C13.5082 0.915347 13.5168 0.934045 13.5254 0.952779C13.5294 0.961354 13.5333 0.969936 13.5379 0.977587C13.5286 0.981546 13.5193 0.986766 13.51 0.991978C13.4901 1.00313 13.4703 1.01425 13.4512 1.01289C13.2466 0.999466 13.0586 0.935319 12.8862 0.8299C12.877 0.824269 12.8674 0.818989 12.8578 0.813701ZM13.7435 17.0749C13.6537 17.1192 13.5566 17.1475 13.446 17.1291C13.4534 17.051 13.5137 17.0141 13.5679 16.9809L13.5779 16.9748C13.581 16.9729 13.5841 16.9709 13.5872 16.969C13.7378 16.8745 13.9055 16.8134 14.08 16.7706C14.0957 16.7668 14.1143 16.7729 14.133 16.779C14.1416 16.7818 14.1501 16.7846 14.1584 16.7865C14.1554 16.7949 14.1533 16.8045 14.1512 16.8141C14.1468 16.8343 14.1425 16.8542 14.1299 16.8616C14.0037 16.9362 13.8754 17.0093 13.7435 17.0749Z"
      fill="white"
    />
    <path
      d="M7.92538 17.7885C7.93729 17.7885 7.94921 17.7882 7.9611 17.7878C7.98654 17.7871 8.01191 17.7863 8.03703 17.789C8.08937 17.7944 8.14163 17.8011 8.1939 17.8078C8.28115 17.8189 8.36842 17.83 8.4561 17.8353C8.72768 17.8522 8.99928 17.8666 9.27138 17.8736C9.6863 17.884 10.1012 17.8905 10.5156 17.8915C10.6937 17.8915 10.8729 17.881 11.0505 17.8626C11.1227 17.855 11.1939 17.837 11.2652 17.8189C11.3015 17.8097 11.3379 17.8004 11.3745 17.7925C11.4804 17.7696 11.5869 17.7473 11.6934 17.7274C11.8455 17.699 11.9982 17.6707 12.1514 17.6473C12.2216 17.6367 12.2926 17.6302 12.3695 17.6233C12.4074 17.6198 12.4469 17.6163 12.4884 17.612C12.4464 17.665 12.3961 17.6753 12.349 17.6849C12.332 17.6884 12.3155 17.6918 12.2999 17.697C12.1923 17.7338 12.08 17.7443 11.9677 17.7547C11.887 17.7623 11.8064 17.7698 11.7276 17.787C11.6658 17.8005 11.6054 17.8196 11.545 17.8387C11.4937 17.855 11.4423 17.8712 11.3901 17.884C11.3193 17.9014 11.2452 17.9095 11.1719 17.9175L11.1595 17.9188C11.038 17.9317 10.9165 17.9442 10.7945 17.9516C10.5893 17.9641 10.3837 17.9735 10.1781 17.983C10.1387 17.9847 10.0992 17.9868 10.0598 17.9889C9.94534 17.9949 9.8307 18.001 9.71641 17.9999C9.54037 17.9984 9.36381 17.9884 9.18829 17.975C9.00083 17.9606 8.81389 17.9422 8.62746 17.9183C8.47626 17.8988 8.32543 17.8736 8.17498 17.8484C8.14872 17.844 8.12247 17.8396 8.09623 17.8353C8.05781 17.829 8.01986 17.8196 7.98191 17.8102C7.96293 17.8055 7.9439 17.8008 7.92486 17.7965L7.92538 17.7885Z"
      fill="white"
    />
  </svg>